<mxfile host="app.diagrams.net" modified="2023-04-03T09:31:25.131Z" agent="5.0 (Windows NT 10.0; Win64; x64) AppleWebKit/537.36 (KHTML, like Gecko) Chrome/111.0.0.0 Safari/537.36" etag="-HUwNBPEcb5uyJmsyKR0" version="21.0.10" type="github">
  <diagram id="C5RBs43oDa-KdzZeNtuy" name="Page-1">
    <mxGraphModel dx="1416" dy="895" grid="1" gridSize="10" guides="1" tooltips="1" connect="1" arrows="1" fold="1" page="1" pageScale="1" pageWidth="827" pageHeight="1169" math="0" shadow="0">
      <root>
        <mxCell id="WIyWlLk6GJQsqaUBKTNV-0" />
        <mxCell id="WIyWlLk6GJQsqaUBKTNV-1" parent="WIyWlLk6GJQsqaUBKTNV-0" />
        <mxCell id="9bJD5L9RX0prSNk7wspL-0" value="Individual&lt;br&gt;Producer DB" style="shape=cylinder3;whiteSpace=wrap;html=1;boundedLbl=1;backgroundOutline=1;size=15;" vertex="1" parent="WIyWlLk6GJQsqaUBKTNV-1">
          <mxGeometry x="515.41" y="462" width="130" height="140" as="geometry" />
        </mxCell>
        <mxCell id="9bJD5L9RX0prSNk7wspL-1" value="Producer" style="swimlane;whiteSpace=wrap;html=1;" vertex="1" parent="WIyWlLk6GJQsqaUBKTNV-1">
          <mxGeometry x="80" y="232" width="240" height="288" as="geometry" />
        </mxCell>
        <mxCell id="9bJD5L9RX0prSNk7wspL-3" value="" style="shape=image;html=1;verticalAlign=top;verticalLabelPosition=bottom;labelBackgroundColor=#ffffff;imageAspect=0;aspect=fixed;image=https://cdn3.iconfinder.com/data/icons/document-icons-2/30/647714-excel-128.png" vertex="1" parent="9bJD5L9RX0prSNk7wspL-1">
          <mxGeometry x="20" y="40" width="40" height="40" as="geometry" />
        </mxCell>
        <mxCell id="9bJD5L9RX0prSNk7wspL-5" value="OpenDataDSL API" style="image;aspect=fixed;html=1;points=[];align=center;fontSize=12;image=img/lib/azure2/other/API_Proxy.svg;" vertex="1" parent="9bJD5L9RX0prSNk7wspL-1">
          <mxGeometry x="101" y="126" width="68" height="38" as="geometry" />
        </mxCell>
        <mxCell id="9bJD5L9RX0prSNk7wspL-8" value="" style="shape=image;html=1;verticalAlign=top;verticalLabelPosition=bottom;labelBackgroundColor=#ffffff;imageAspect=0;aspect=fixed;image=https://cdn3.iconfinder.com/data/icons/document-icons-2/30/647714-excel-128.png" vertex="1" parent="9bJD5L9RX0prSNk7wspL-1">
          <mxGeometry x="20" y="200" width="40" height="40" as="geometry" />
        </mxCell>
        <mxCell id="9bJD5L9RX0prSNk7wspL-13" value="" style="edgeStyle=orthogonalEdgeStyle;rounded=0;orthogonalLoop=1;jettySize=auto;html=1;" edge="1" parent="9bJD5L9RX0prSNk7wspL-1" source="9bJD5L9RX0prSNk7wspL-11" target="9bJD5L9RX0prSNk7wspL-5">
          <mxGeometry relative="1" as="geometry" />
        </mxCell>
        <mxCell id="9bJD5L9RX0prSNk7wspL-11" value="Internal DB or System" style="shape=cylinder3;whiteSpace=wrap;html=1;boundedLbl=1;backgroundOutline=1;size=15;" vertex="1" parent="9bJD5L9RX0prSNk7wspL-1">
          <mxGeometry x="10" y="105" width="60" height="80" as="geometry" />
        </mxCell>
        <mxCell id="9bJD5L9RX0prSNk7wspL-4" style="edgeStyle=orthogonalEdgeStyle;rounded=0;orthogonalLoop=1;jettySize=auto;html=1;" edge="1" parent="WIyWlLk6GJQsqaUBKTNV-1" source="9bJD5L9RX0prSNk7wspL-3" target="9bJD5L9RX0prSNk7wspL-7">
          <mxGeometry relative="1" as="geometry">
            <mxPoint x="440" y="292" as="targetPoint" />
            <Array as="points">
              <mxPoint x="330" y="292" />
              <mxPoint x="330" y="317" />
            </Array>
          </mxGeometry>
        </mxCell>
        <mxCell id="9bJD5L9RX0prSNk7wspL-6" style="edgeStyle=orthogonalEdgeStyle;rounded=0;orthogonalLoop=1;jettySize=auto;html=1;" edge="1" parent="WIyWlLk6GJQsqaUBKTNV-1" source="9bJD5L9RX0prSNk7wspL-5" target="9bJD5L9RX0prSNk7wspL-7">
          <mxGeometry relative="1" as="geometry">
            <mxPoint x="430" y="342" as="targetPoint" />
            <Array as="points">
              <mxPoint x="330" y="350" />
              <mxPoint x="330" y="317" />
            </Array>
          </mxGeometry>
        </mxCell>
        <mxCell id="9bJD5L9RX0prSNk7wspL-14" value="Upload via Excel&lt;br&gt;or API" style="edgeLabel;html=1;align=center;verticalAlign=middle;resizable=0;points=[];" vertex="1" connectable="0" parent="9bJD5L9RX0prSNk7wspL-6">
          <mxGeometry x="0.2321" relative="1" as="geometry">
            <mxPoint as="offset" />
          </mxGeometry>
        </mxCell>
        <mxCell id="9bJD5L9RX0prSNk7wspL-9" style="edgeStyle=orthogonalEdgeStyle;rounded=0;orthogonalLoop=1;jettySize=auto;html=1;entryX=1;entryY=0.5;entryDx=0;entryDy=0;exitX=-0.014;exitY=0.962;exitDx=0;exitDy=0;exitPerimeter=0;" edge="1" parent="WIyWlLk6GJQsqaUBKTNV-1" source="9bJD5L9RX0prSNk7wspL-7" target="9bJD5L9RX0prSNk7wspL-8">
          <mxGeometry relative="1" as="geometry" />
        </mxCell>
        <mxCell id="9bJD5L9RX0prSNk7wspL-10" value="Reporting" style="edgeLabel;html=1;align=center;verticalAlign=middle;resizable=0;points=[];" vertex="1" connectable="0" parent="9bJD5L9RX0prSNk7wspL-9">
          <mxGeometry x="-0.3049" y="-2" relative="1" as="geometry">
            <mxPoint as="offset" />
          </mxGeometry>
        </mxCell>
        <mxCell id="9bJD5L9RX0prSNk7wspL-15" value="" style="edgeStyle=orthogonalEdgeStyle;rounded=0;orthogonalLoop=1;jettySize=auto;html=1;" edge="1" parent="WIyWlLk6GJQsqaUBKTNV-1" source="9bJD5L9RX0prSNk7wspL-7" target="9bJD5L9RX0prSNk7wspL-0">
          <mxGeometry relative="1" as="geometry" />
        </mxCell>
        <mxCell id="9bJD5L9RX0prSNk7wspL-7" value="OpenDataDSL API" style="image;aspect=fixed;html=1;points=[];align=center;fontSize=12;image=img/lib/azure2/app_services/API_Management_Services.svg;" vertex="1" parent="WIyWlLk6GJQsqaUBKTNV-1">
          <mxGeometry x="510" y="252" width="140.83" height="130" as="geometry" />
        </mxCell>
        <mxCell id="9bJD5L9RX0prSNk7wspL-16" value="Retailer" style="swimlane;whiteSpace=wrap;html=1;" vertex="1" parent="WIyWlLk6GJQsqaUBKTNV-1">
          <mxGeometry x="80" y="30" width="240" height="150" as="geometry" />
        </mxCell>
        <mxCell id="9bJD5L9RX0prSNk7wspL-17" value="" style="shape=image;html=1;verticalAlign=top;verticalLabelPosition=bottom;labelBackgroundColor=#ffffff;imageAspect=0;aspect=fixed;image=https://cdn3.iconfinder.com/data/icons/document-icons-2/30/647714-excel-128.png" vertex="1" parent="9bJD5L9RX0prSNk7wspL-16">
          <mxGeometry x="20" y="40" width="40" height="40" as="geometry" />
        </mxCell>
        <mxCell id="9bJD5L9RX0prSNk7wspL-22" value="" style="shape=image;html=1;verticalAlign=top;verticalLabelPosition=bottom;labelBackgroundColor=#ffffff;imageAspect=0;aspect=fixed;image=https://cdn3.iconfinder.com/data/icons/document-icons-2/30/647702-excel-128.png" vertex="1" parent="9bJD5L9RX0prSNk7wspL-16">
          <mxGeometry x="15" y="90" width="50" height="50" as="geometry" />
        </mxCell>
        <mxCell id="9bJD5L9RX0prSNk7wspL-23" value="CSL" style="swimlane;whiteSpace=wrap;html=1;" vertex="1" parent="WIyWlLk6GJQsqaUBKTNV-1">
          <mxGeometry x="80" y="585" width="240" height="195" as="geometry" />
        </mxCell>
        <mxCell id="9bJD5L9RX0prSNk7wspL-24" value="DRS Reporting" style="shape=process;whiteSpace=wrap;html=1;backgroundOutline=1;" vertex="1" parent="9bJD5L9RX0prSNk7wspL-23">
          <mxGeometry x="90" y="115" width="120" height="60" as="geometry" />
        </mxCell>
        <mxCell id="9bJD5L9RX0prSNk7wspL-25" style="edgeStyle=orthogonalEdgeStyle;rounded=0;orthogonalLoop=1;jettySize=auto;html=1;entryX=0.5;entryY=0;entryDx=0;entryDy=0;" edge="1" parent="WIyWlLk6GJQsqaUBKTNV-1" source="9bJD5L9RX0prSNk7wspL-8" target="9bJD5L9RX0prSNk7wspL-24">
          <mxGeometry relative="1" as="geometry">
            <Array as="points">
              <mxPoint x="120" y="560" />
              <mxPoint x="230" y="560" />
            </Array>
          </mxGeometry>
        </mxCell>
        <mxCell id="9bJD5L9RX0prSNk7wspL-27" value="Manual Upload" style="edgeLabel;html=1;align=center;verticalAlign=middle;resizable=0;points=[];" vertex="1" connectable="0" parent="9bJD5L9RX0prSNk7wspL-25">
          <mxGeometry x="-0.0414" y="2" relative="1" as="geometry">
            <mxPoint as="offset" />
          </mxGeometry>
        </mxCell>
        <mxCell id="9bJD5L9RX0prSNk7wspL-26" value="" style="endArrow=classic;html=1;rounded=0;entryX=1;entryY=0.5;entryDx=0;entryDy=0;" edge="1" parent="WIyWlLk6GJQsqaUBKTNV-1" target="9bJD5L9RX0prSNk7wspL-24">
          <mxGeometry width="50" height="50" relative="1" as="geometry">
            <mxPoint x="510" y="390" as="sourcePoint" />
            <mxPoint x="440" y="510" as="targetPoint" />
            <Array as="points">
              <mxPoint x="420" y="460" />
              <mxPoint x="420" y="730" />
            </Array>
          </mxGeometry>
        </mxCell>
        <mxCell id="9bJD5L9RX0prSNk7wspL-28" value="Automated Upload" style="edgeLabel;html=1;align=center;verticalAlign=middle;resizable=0;points=[];" vertex="1" connectable="0" parent="9bJD5L9RX0prSNk7wspL-26">
          <mxGeometry x="0.0701" y="-1" relative="1" as="geometry">
            <mxPoint as="offset" />
          </mxGeometry>
        </mxCell>
      </root>
    </mxGraphModel>
  </diagram>
</mxfile>
